<svg viewBox="2.6442307692307168 198.1875 806.4903846153845 713.475" xmlns="http://www.w3.org/2000/svg" xmlns:blush="http://design.blush" overflow="visible" xmlns:xlink="http://www.w3.org/1999/xlink" width="806.4903846153845px" height="713.475px"><g id="Master/Comps/Desk" stroke="none" stroke-width="1" fill="none" fill-rule="evenodd" blush:i="0"><g id="Blob" opacity=".288" transform="translate(8.500000, 153.891534) scale(1.5086372360844529 1.5089820359281436)" blush:width="786" blush:height="756" blush:component="Blob" blush:i="0.0" blush:value="4"><g id="Blob/4" stroke="none" stroke-width="1" fill="none" fill-rule="evenodd" blush:i="0.0.0"><path d="M462.529343,58.5675813 C512.074429,91.3346384 533.919308,168.579316 512.975249,224.880101 C491.918587,281.068285 428.18559,316.425178 378.640503,361.69101 C329.095417,406.84424 293.738241,462.019009 254.777787,465.734861 C215.817333,469.450713 173.028394,421.707647 123.483308,376.554417 C73.9382214,331.288586 17.6369868,288.499989 4.12469049,232.424407 C-9.27500335,176.236223 20.3394461,106.761054 69.8845325,73.8813949 C119.429619,41.1143378 188.905343,44.9427912 262.322152,41.1143378 C335.738962,37.1732828 412.984256,25.6879226 462.529343,58.5675813 Z" id="blobs-burgers" fill="#A8DADC" blush:i="0.0.0.0"/></g></g><g id="Chair" transform="translate(35.000000, 285.000000) scale(1 1)" blush:width="526" blush:height="622" blush:component="Chair" blush:i="0.1" blush:value="Office"><g id="Chair/Office" stroke="none" stroke-width="1" fill="none" fill-rule="evenodd" blush:i="0.1.0"><g id="Group-21" transform="translate(17.000000, 0.000000)" blush:i="0.1.0.0"><path d="M103.2542,227.355 L103.2542,293.645 C103.2542,299.474876 108.026017,304.340723 113.823279,304.496169 L114.1092,304.5 L180.3992,304.5 L180.3992,343.5 L114.1092,343.5 C86.9192929,343.5 64.7025164,321.555123 64.2608998,294.467397 L64.2542,293.645 L64.2542,227.355 L103.2542,227.355 Z" id="Stroke-1" fill="#457B9D" fill-rule="nonzero" blush:i="0.1.0.0.0"/><path d="M120.6111,258 L96.1921,258 C43.2861,258 0.0001,214.713 0.0001,161.808 L0.0001,96.192 C0.0001,43.287 43.2861,0 96.1921,0 L120.6111,0 C153.6901,0 180.7541,27.064 180.7541,60.143 L180.7541,197.857 C180.7541,230.936 153.6901,258 120.6111,258" id="Fill-3" fill="#1D3557" blush:i="0.1.0.0.1"/><path d="M253.7542,571 L243.7542,571 C239.3542,571 235.7542,566.352 235.7542,560.67 L235.7542,346.33 C235.7542,340.648 239.3542,336 243.7542,336 L253.7542,336 C258.1542,336 261.7542,340.648 261.7542,346.33 L261.7542,560.67 C261.7542,566.352 258.1542,571 253.7542,571" id="Fill-5" fill="#457B9D" blush:i="0.1.0.0.2"/><path d="M261.7542,586 L248.7542,586 L235.7542,586 C235.7542,586 145.7542,600.6 145.7542,594 L145.7542,591 C145.7542,584.4 151.1542,579 157.7542,579 L235.7542,559 L248.7542,559 L261.7542,559 L339.7542,579 C346.3542,579 351.7542,584.4 351.7542,591 L351.7542,594 C351.7542,600.6 261.7542,586 261.7542,586" id="Fill-7" fill="#1D3557" blush:i="0.1.0.0.3"/><path d="M256.8313,475 L240.6773,475 C233.5693,475 227.7543,472.25 227.7543,468.89 L227.7543,342.11 C227.7543,338.75 233.5693,336 240.6773,336 L256.8313,336 C263.9383,336 269.7543,338.75 269.7543,342.11 L269.7543,468.89 C269.7543,472.25 263.9383,475 256.8313,475" id="Fill-9" fill="#457B9D" blush:i="0.1.0.0.4"/><path d="M344.011,356 L153.497,356 C138.239,356 125.754,343.516 125.754,328.257 L125.754,313.743 C125.754,298.484 138.239,286 153.497,286 L344.011,286 C359.27,286 371.754,298.484 371.754,313.743 L371.754,328.257 C371.754,343.516 359.27,356 344.011,356" id="Fill-11" fill="#1D3557" blush:i="0.1.0.0.5"/><path d="M161.7542,608 C161.7542,615.732 155.4862,622 147.7542,622 C140.0222,622 133.7542,615.732 133.7542,608 C133.7542,600.268 140.0222,594 147.7542,594 C155.4862,594 161.7542,600.268 161.7542,608" id="Fill-13" fill="#1D3557" blush:i="0.1.0.0.6"/><path d="M365.7542,608 C365.7542,615.732 359.4862,622 351.7542,622 C344.0222,622 337.7542,615.732 337.7542,608 C337.7542,600.268 344.0222,594 351.7542,594 C359.4862,594 365.7542,600.268 365.7542,608" id="Fill-15" fill="#1D3557" blush:i="0.1.0.0.7"/><path d="M263.7542,608 C263.7542,615.732 257.4862,622 249.7542,622 C242.0222,622 235.7542,615.732 235.7542,608 C235.7542,600.268 242.0222,594 249.7542,594 C257.4862,594 263.7542,600.268 263.7542,608" id="Fill-17" fill="#1D3557" blush:i="0.1.0.0.8"/><path d="M253.7542,596 L245.7542,596 L235.7542,571 C235.7542,564.4 241.1542,559 247.7542,559 L251.7542,559 C258.3542,559 263.7542,564.4 263.7542,571 L253.7542,596 Z" id="Fill-19" fill="#1D3557" blush:i="0.1.0.0.9"/></g></g></g><g transform="translate(-111.000000, 211.000000) scale(1 1)" blush:has-customizable-colors="true" blush:width="904" blush:height="859" id="Master/Character/Sitting" blush:component="Master/Character/Sitting" blush:i="0.2" blush:value="Sitting"><g id="Master/Character/Sitting" stroke="none" stroke-width="1" fill="none" fill-rule="evenodd" blush:has-customizable-colors="true" blush:i="0.2.0"><g id="Legs Sitting" transform="translate(317.000000, 266.000000) scale(1 1)" blush:width="525" blush:height="423" blush:component="Legs Sitting" blush:i="0.2.0.0" blush:value="Pants Cool"><g id="Legs Sitting/Pants Cool" stroke="none" stroke-width="1" fill="none" fill-rule="evenodd" blush:i="0.2.0.0.0"><path d="M56,99 C25.072054,99 -4.00139793e-11,73.927946 -4.00177669e-11,43 L-4.00177669e-11,0 L195,0 C195,54.676 153.44625,99 102.1875,99 L56,99 Z" id="PELVIS-PLUS" fill="#0A1B45" blush:i="0.2.0.0.0.0"/><g id="Group-22" blush:i="0.2.0.0.0.1"><path d="M148.512867,357.314064 C92.3890819,297.502309 86.0031305,323.72138 129.268021,270.724662 C165.288266,226.128617 201.226197,180.796812 229.741757,130.875268 C231.634999,127.449732 233.472118,124.021192 235.209149,120.539597 C235.544956,119.853889 237.580379,119.946985 240.845848,120.141186 C248.946381,119.613641 285.645724,129.544895 294.373908,131.033432 C301.429603,132.482928 305.538799,138.618263 304.942952,146.025911 C304.735294,150.471501 302.144246,155.28347 300.119112,159.27459 C275.917601,205.85068 244.213275,247.938135 212.781149,288.623142 C194.609203,311.85613 175.92653,334.581593 157.057713,356.868604 C154.804343,359.534357 150.990732,359.718547 148.512867,357.314064" id="Fill-1" fill="#edb98a" blush:color="Skin-500" blush:i="0.2.0.0.0.1.0"/><g id="Group-5" transform="translate(106.000000, 0.000000)" fill="#051026" blush:i="0.2.0.0.0.1.1"><path d="M12.902445,0.291 L0.515187243,74.6597 C-0.568434156,78.6627 3.98931481,81.3157 7.70165226,81.5047 C45.4312942,89.2667 84.2155988,98.5747 119.325866,114.6607 L119.328669,114.6797 C119.834981,114.9097 119.89757,115.5307 119.460385,115.8477 C119.473463,115.7917 119.517368,115.6867 119.554735,115.6317 C91.3235947,168.1667 53.2623272,215.1287 16.0259198,261.3247 L91.4814671,331.9157 C137.60357,273.1567 186.756076,214.1867 216.793874,143.4327 C243.826492,77.7537 210.441575,36.7586884 154.856504,16.4597 C108.062054,-0.629061188 88.744856,0.0615 88.744856,0.0615 C88.744856,0.0615 63.4640523,0.138 12.902445,0.291 Z" id="Fill-3" blush:i="0.2.0.0.0.1.1.0"/></g><path d="M162.923792,350 L108,297.045406 C113.897288,290.040561 119.736879,283.038704 125.529008,276 L181,328.298326 C175.00872,335.578027 168.973701,342.812914 162.923792,350" id="Fill-6" fill="#FFF" blush:i="0.2.0.0.0.1.2"/><path d="M173.250173,337.805006 C169.399294,334.157387 155.513016,321.001368 142.565268,308.736013 C133.509735,321.36623 109.55236,298.465901 120.183381,287.532041 C118.487641,285.926649 117.509655,285 117.509655,285 C111.930154,291.644484 100.627414,305.014422 95,311.633915 L176.132461,388 L182.928573,379.985035 C188.808704,373.055659 168.341453,350.237298 173.250173,337.805006" id="Fill-8" fill="#0A1B45" blush:i="0.2.0.0.0.1.3"/><path d="M406.08682,417.260912 C319.873795,414.298374 343.500394,440.861129 333.48825,356.745073 C328.042655,311.668459 318.99194,267.883952 301.731174,227.367245 C296.232218,214.624329 289.984341,202.737146 283.001585,192.230146 C280.960774,189.169524 280.548868,185.339243 281.455999,181.364838 C282.064497,170.783774 313.500474,149.055161 319.432868,141.857996 C343.419885,123.10393 360.035642,177.966927 369.254865,194.0447 C389.97284,242.364091 401.0756,294.914107 407.279478,346.867612 C409.725642,367.895625 411.352674,388.878599 411.996747,410.259915 C412.106276,414.046158 409.436371,417.210869 406.08682,417.260912" id="Fill-10" fill="#edb98a" blush:color="Skin-500" blush:i="0.2.0.0.0.1.4"/><path d="M87.0942407,0.520334925 C87.0942407,1.21411483 22.3291948,48.4467743 29.4468336,53.6578632 C29.4468336,53.6578632 12.8372375,93.4137983 92.1716243,98.9246299 C171.506011,104.435461 199.900789,115.083658 248.34395,157.658444 C296.78711,200.23323 314.976998,295.009779 323.242734,371 L423,359.940667 C410.840272,241.027371 374.430272,113.948904 266.033297,57.9971085 C219.866345,30.9959178 167.53472,21.826079 120.437511,0.520334925 C120.437511,-0.173444975 87.0942407,-0.173444975 87.0942407,0.520334925 Z" id="Fill-12" fill="#0A1B45" blush:i="0.2.0.0.0.1.5"/><path d="M412,403.582869 L337.781381,407 C337.405468,397.497719 336.799518,387.852509 336,378.241764 L409.983906,371 C410.883481,381.820071 411.567045,392.65332 412,403.582869" id="Fill-14" fill="#FFF" blush:i="0.2.0.0.0.1.6"/><path d="M411.049761,385 C405.93418,385.39093 387.486689,386.799076 370.285853,388.112482 C372.497869,403.427567 340.492314,405.266534 340.551189,390.38227 C338.299922,390.554797 337,390.653527 337,390.653527 C337.698089,401.163762 338.187779,411.667017 338.251327,422.159301 L446,423 C445.993458,421.150063 445.97944,417.432238 445.938321,415.599255 L445.783191,409.052173 C443.842186,397.797974 414.314986,396.839597 411.049761,385" id="Fill-16" fill="#0A1B45" blush:i="0.2.0.0.0.1.7"/><path d="M101.663462,99 L92.3365385,99 C41.3406538,99 -4.00177669e-11,54.676 -4.00177669e-11,0 L194,0 C194,54.676 152.659346,99 101.663462,99" id="Fill-20" fill="#0A1B45" blush:i="0.2.0.0.0.1.8"/></g><path d="M63.3481022,-2 L63.4572771,-1.99438818 C63.971153,-1.93614474 64.3435318,-1.44392851 64.2890083,-0.894992446 C61.2290885,29.9119273 74.9103744,46.3975137 105.682185,48.9156855 C138.86589,51.6312315 169.864385,57.8581401 200.779808,70.3229547 C242.75068,87.2452245 278.429116,113.783221 305.690227,152.004206 C345.676084,208.065709 368.775087,279.379762 375,365.923898 C375.036778,366.474294 374.65117,366.954746 374.135927,367 C373.620684,367.039288 373.170918,366.62737 373.131347,366.076974 C366.935502,279.898312 343.955628,208.952048 304.201697,153.215713 C277.167102,115.31231 241.778613,88.9899798 200.118989,72.1932021 C169.392803,59.8046861 138.560224,53.6111064 105.539245,50.9088768 C73.7408306,48.3066943 59.2540091,30.850459 62.4280989,-1.1059106 C62.4787279,-1.61563694 62.8796484,-1.99503402 63.3481022,-2 Z" id="Path-6" fill="#FFF" fill-rule="nonzero" blush:i="0.2.0.0.0.2"/></g></g><g id="Body" transform="translate(41.000000, -31.000000) scale(1 1)" blush:width="863" blush:height="528" blush:component="Body" blush:i="0.2.0.1" blush:value="Sweats Shake Hand"><g id="Body/Sweats Shake Hand" stroke="none" stroke-width="1" fill="none" fill-rule="evenodd" blush:i="0.2.0.1.0"><g id="Body" transform="translate(238.000000, 149.000000)" blush:i="0.2.0.1.0.0"><path d="M278.106708,192.298647 C205.538716,197.378937 1.44114734,174.139406 3.75109927,161.20524 C8.33256874,135.552114 16.2642525,95.4663653 27.5461506,40.9479927 C27.5461506,18.3333745 47.7038086,-0.000770909091 72.5687342,-0.000770909091 L211.895593,-0.000770909091 C236.760519,-0.000770909091 256.917117,18.3333745 256.917117,40.9479927 C266.870755,93.2351517 274.102974,132.007446 278.613775,157.264876 C280.224412,166.283349 280.055389,177.961273 278.106708,192.298647 Z" id="Sweat-Body" fill="#E63946" blush:i="0.2.0.1.0.0.0"/><path d="M0.000317843866,195.189749 C100.650875,230.844295 209.77727,197.117022 284.463162,195.189749 L279.673255,156.30124 C206.510894,158.917513 101.819481,190.863022 3.67459294,157.11744 L0.000317843866,195.189749 Z" id="Bottom" fill="#E63946" blush:i="0.2.0.1.0.0.1"/></g><g id="Left-Arm" transform="translate(254.000000, 149.000000)" blush:i="0.2.0.1.0.1"><path d="M245.5687,200.7129 C202.2867,202.4529 153.1557,202.3859 117.4977,175.4529 C86.0537,148.3519 78.8097,100.9299 77.3677,59.5679 C77.0107,41.0099 64.3127,25.4009 45.2637,23.9779 C4.3387,22.7319 10.4147,70.4079 14.2027,98.7859 C19.4537,138.8459 31.9467,179.2569 59.3637,210.6699 C87.0537,242.9889 130.1117,258.7759 170.7947,264.1759 C204.2027,268.7699 237.4827,268.1599 270.7497,264.8999 C285.8757,263.3999 300.8897,261.3059 315.8637,258.6359 C324.4857,257.3639 326.5287,245.4949 318.7897,241.8289 L324.2247,240.7709 C333.1917,239.2589 334.0947,226.4599 325.8257,223.5769 C335.1857,217.6839 327.2517,203.4119 317.1797,207.5049 C322.2647,201.6719 316.4757,191.0819 308.8617,192.8189 C303.3517,193.8639 297.7797,194.8109 292.1977,195.6669 C289.1307,181.2449 268.8407,191.6809 258.7357,190.7099 C248.6917,191.5439 251.1567,200.3659 245.5687,200.7129" id="SKIN" fill="#edb98a" blush:color="Skin-500" blush:i="0.2.0.1.0.1.0"/><path d="M241.2281,273.0296 C230.2531,273.5006 219.1741,273.6496 207.9731,273.2726 C169.7841,285.1006 121.1261,273.3286 85.0871,253.5276 C43.1591,230.1986 16.4421,185.0866 6.5411,139.4346 C0.0111,111.6556 -1.3869,78.9976 1.2721,52.4246 C-0.0759,26.4086 29.3635772,-0.000770909091 56.5687342,-0.000770909091 C83.7738912,-0.000770909091 89.9951,28.7706 89.2711,52.2216 C94.2691,88.7456 99.9091,131.1416 124.1391,159.4216 C137.4641,174.4466 159.3421,182.4736 178.1701,188.1896 C193.4361,192.7936 205.5911,195.6286 210.3001,198.3076 C219.4261,198.6226 228.6871,198.4986 238.0121,198.0986 L241.2281,273.0296 Z" id="Fill-5" fill="#E63946" blush:i="0.2.0.1.0.1.1"/><path d="M208.4388,271.7822 L210.6888,196.8152 C219.6508,197.1232 228.7758,196.9892 237.9478,196.5972 L241.1638,271.5282 C230.3558,271.9892 219.4668,272.1492 208.4388,271.7822" id="Fill-8" fill="#E63946" blush:i="0.2.0.1.0.1.2"/></g></g></g><g id="Head" transform="translate(362.000000, -61.000000) scale(1 1)" blush:width="127" blush:height="211" blush:component="Head" blush:i="0.2.0.2" blush:value="Braid"><g id="Head/Braid" stroke="none" stroke-width="1" fill="none" fill-rule="evenodd" blush:i="0.2.0.2.0"><g id="Group-24" transform="translate(-14.000000, 61.000000)" blush:i="0.2.0.2.0.0"><path d="M36.7634,119.9999 L12.0004,119.9999 L12.0004,105.5959 C12.0004,96.9819 18.9824,89.9999 27.5964,89.9999 L44.9824,89.9999 C47.2014,89.9999 49.0004,91.7989 49.0004,94.0179 L49.0004,107.7639 C49.0004,114.5209 43.5214,119.9999 36.7634,119.9999" id="Fill-1" fill="#000" blush:i="0.2.0.2.0.0.0"/><path d="M16.9163,145.9999 L16.9163,145.9999 C26.3513,145.9999 34.0003,138.3519 34.0003,128.9169 L34.0003,119.9999 L4.6793,119.9999 C2.0953,119.9999 0.0003,122.0949 0.0003,124.6799 L0.0003,129.0829 C0.0003,138.4259 7.5733,145.9999 16.9163,145.9999" id="Fill-3" fill="#000" blush:i="0.2.0.2.0.0.1"/><path d="M45,99.9999 L45,99.9999 C29.536,99.9999 17,87.4639 17,71.9999 L17,47.9999 L45,47.9999 L45,99.9999 Z" id="Fill-5" fill="#000" blush:i="0.2.0.2.0.0.2"/><path d="M67.8008,104.9999 L81.9998,104.9999 L81.9998,-0.0001 L67.8008,-0.0001 C39.7448,-0.0001 16.9998,22.7439 16.9998,50.8009 L16.9998,54.1989 C16.9998,82.2559 39.7448,104.9999 67.8008,104.9999" id="Fill-7" fill="#000" blush:i="0.2.0.2.0.0.3"/><path d="M83.1992,92.9999 L74.0002,92.9999 L74.0002,-0.0001 L83.1992,-0.0001 C111.2552,-0.0001 134.0002,15.8029 134.0002,50.5929 L134.0002,67.2069 C134.0002,92.9999 111.2552,92.9999 83.1992,92.9999" id="Fill-10" fill="#000" blush:i="0.2.0.2.0.0.4"/><path d="M49,72.9999 L94,72.9999 L94,124.6329 C94,138.5379 83.927,149.8099 71.5,149.8099 C59.073,149.8099 49,138.5379 49,124.6329 L49,72.9999 Z" id="SKIN" fill="#edb98a" blush:color="Skin-500" blush:i="0.2.0.2.0.0.5"/><path d="M96.0525,104.9999 L91.0655,104.9999 C67.8335,104.9999 49.0005,86.1669 49.0005,62.9349 L49.0005,43.2029 C49.0005,25.4179 63.4175,10.9999 81.2035,10.9999 L86.7965,10.9999 C104.5825,10.9999 119.0005,25.4179 119.0005,43.2029 L119.0005,82.0519 C119.0005,94.7259 108.7265,104.9999 96.0525,104.9999" id="SKIN" fill="#edb98a" blush:color="Skin-500" blush:i="0.2.0.2.0.0.6"/><path d="M70.7507501,107.331676 C61.4557924,104.043569 56.8185822,95.7386742 54.9822222,84.5680961 C62.2532122,96.6701724 75.4406226,104.813226 90.5439426,104.996733 L91.0655,104.9999 L94,104.9999 C86.0632106,109.229739 78.3134606,110.006998 70.7507501,107.331676 Z" id="SHADOW" fill="#000" opacity=".12" blush:i="0.2.0.2.0.0.7"/><path d="M61,69.4999 C61,76.4029 55.404,81.9999 48.5,81.9999 C41.596,81.9999 36,76.4029 36,69.4999 C36,62.5969 41.596,56.9999 48.5,56.9999 C55.404,56.9999 61,62.5969 61,69.4999" id="SKIN" fill="#edb98a" blush:color="Skin-500" blush:i="0.2.0.2.0.0.8"/><path d="M46.0669,64.1684 C46.9717309,64.1684 48.2238875,64.3770928 49.5087204,65.0195092 C51.6552998,66.0927989 53.0129325,68.055228 53.10401,70.9020045 L53.1089,71.2104 L50.1089,71.2104 C50.1089,69.3750144 49.4075866,68.3230443 48.1670796,67.7027908 C47.7064142,67.4724581 47.1975823,67.3198085 46.686239,67.2345846 C46.4346302,67.1926498 46.2384731,67.1746448 46.1249097,67.169808 L46.0669,67.1684 L46.0669,64.1684 Z" id="Stroke-19" fill="#000" fill-rule="nonzero" blush:i="0.2.0.2.0.0.9"/><path d="M48,56.9999 L46.464,56.9999 C40.61,51.3079 38.361,39.7079 37.683,28.4489 C36.754,13.0199 63.542,-0.0001 78.999,-0.0001 L78.999,-0.0001 C90.89,-0.0001 102.025,5.8309 108.797,15.6049 L116,25.9999 L74.697,25.9999 C74.697,42.9999 60,56.9999 48,56.9999" id="Fill-21" fill="#000" blush:i="0.2.0.2.0.0.10"/></g></g></g><g id="Expression" transform="translate(409.000000, 34.000000) scale(1 1)" fill="#000" blush:width="61" blush:height="61" blush:component="Expression" blush:i="0.2.0.3" blush:value="Wink"><defs blush:i="0.2.0.3.0"><filter id="expressionwink-filter-1" blush:i="0.2.0.3.0.0"><feColorMatrix in="SourceGraphic" values="0 0 0 0 0.000000 0 0 0 0 0.000000 0 0 0 0 0.000000 0 0 0 1.000000 0" blush:i="0.2.0.3.0.0.0"/></filter></defs><g id="Expression/Wink" stroke="none" stroke-width="1" fill="none" fill-rule="evenodd" blush:i="0.2.0.3.1"><g filter="url(#expressionwink-filter-1)" id="Group-17" blush:i="0.2.0.3.1.0"><g transform="translate(9.000000, 3.000000)" blush:i="0.2.0.3.1.0.0"><path d="M37.6862,19.0627 C37.6862,17.4057 36.3432,16.0627 34.6862,16.0627 C33.0292,16.0627 31.6862,17.4057 31.6862,19.0627 C31.6862,20.7197 33.0292,22.0627 34.6862,22.0627 C36.3432,22.0627 37.6862,20.7197 37.6862,19.0627" id="Fill-1" fill="#000" blush:i="0.2.0.3.1.0.0.0"/><path d="M13.0473,38.6487 C13.0473,42.3229625 16.7893817,45.7208933 20.8069435,45.8527329 L21.0483,45.8567 L21.0483,48.8567 C15.4506295,48.8567 10.2215019,44.2907163 10.0515594,38.9179911 L10.0473,38.6487 L13.0473,38.6487 Z" id="Stroke-5" fill="#000" fill-rule="nonzero" blush:i="0.2.0.3.1.0.0.1"/><path d="M2.57564697,9.21147847 C6.2616177,8.06796663 10.3535814,7.81561498 14.5680667,8.99954871 L15.0368326,9.13703524 L14.1597674,12.0059648 C10.4145271,10.8610011 6.75307649,11.056551 3.46455381,12.0767611 C2.87639473,12.2592278 2.35407493,12.4536573 1.90571976,12.6462124 L1.67798076,12.7466018 L1.40843093,12.875962 L0.000169065366,10.227038 C0.505632486,9.95831572 1.38329457,9.5813862 2.57564697,9.21147847 Z" id="Stroke-7" fill="#000" fill-rule="nonzero" blush:i="0.2.0.3.1.0.0.2"/><path d="M27.4327673,1.61074391 C31.7294847,0.539609121 35.85137,0.927023851 39.5454285,2.22070874 C40.6627133,2.61198958 41.5287224,3.00892816 42.1054952,3.32415386 L42.3911858,3.48746626 L40.8460142,6.05893374 L40.6830708,5.96779273 C40.5848397,5.91521377 40.4526078,5.84736079 40.2880352,5.76752086 C39.7889686,5.52540617 39.2078998,5.28115198 38.5538553,5.05210108 C35.5067759,3.98499275 32.1271224,3.6348104 28.6169983,4.41363387 L28.1584327,4.52165609 L27.4327673,1.61074391 Z" id="Stroke-9" fill="#000" fill-rule="nonzero" blush:i="0.2.0.3.1.0.0.3"/><path d="M2.29348496,21.505614 C4.78316311,15.2814186 15.5765131,15.2055138 17.1047395,21.5313094 L17.157071,21.7685258 L14.215329,22.3568742 C13.5401751,18.9811049 6.8011145,18.9218809 5.16179365,22.4285178 L5.07891504,22.619786 L2.29348496,21.505614 Z" id="Stroke-15" fill="#000" fill-rule="nonzero" blush:i="0.2.0.3.1.0.0.4"/></g></g><polygon id="Stroke-5" fill="#000" fill-rule="nonzero" points="33.1977829 19.396766 36.1476171 18.850434 40.4350211 41.9996 30.5607 41.9996 30.5607 38.9996 36.828 38.999" blush:i="0.2.0.3.1.1"/></g></g><g id="Accessories" transform="translate(396.000000, 56.000000) scale(1 1)" fill="#000" blush:width="76" blush:height="48" blush:component="Accessories" blush:i="0.2.0.4" blush:value="None"><g id="Accessories/None" stroke="none" stroke-width="1" fill="none" fill-rule="evenodd" fill-opacity="0" blush:i="0.2.0.4.0"/></g><g id="Glasses" transform="translate(388.000000, 42.000000) scale(1 1)" fill="#000" blush:width="95" blush:height="32" blush:component="Glasses" blush:i="0.2.0.5" blush:value="Round Big"><g id="Glasses/Round Big" stroke="none" stroke-width="1" fill="none" fill-rule="evenodd" blush:i="0.2.0.5.0"><path d="M59,16 C59,25.3888407 51.3888407,33 42,33 C32.719077,33 25.175204,25.5628044 25.0030079,16.3230397 L25,16 L0,16 L0,14 L25.1163521,14.0004624 C26.106,5.55389893 33.2876275,-1 42,-1 C50.7123725,-1 57.894,5.55389893 58.8836479,14.0004624 L61.1163521,14.0004624 C62.106,5.55389893 69.2876275,-1 78,-1 C87.3888407,-1 95,6.61115925 95,16 C95,25.3888407 87.3888407,33 78,33 C68.719077,33 61.175204,25.5628044 61.0030079,16.3230397 L61,16 L59,16 Z M42,1 C33.7157288,1 27,7.71572875 27,16 C27,24.2842712 33.7157288,31 42,31 C50.2842712,31 57,24.2842712 57,16 C57,7.71572875 50.2842712,1 42,1 Z M78,1 C69.7157288,1 63,7.71572875 63,16 C63,24.2842712 69.7157288,31 78,31 C86.2842712,31 93,24.2842712 93,16 C93,7.71572875 86.2842712,1 78,1 Z" id="Shape" fill="#000" blush:i="0.2.0.5.0.0"/></g></g></g></g><g id="Desk" transform="translate(171.000000, 207.000000)" blush:i="0.3"><rect id="Rectangle" fill="#E63946" x="290" y="0" width="257" height="217" blush:i="0.3.0"/><rect id="Rectangle" fill="#F1FAEE" x="290" y="0" width="26" height="217" blush:i="0.3.1"/><g id="keyboard" transform="translate(185.000000, 258.000000)" blush:i="0.3.2"><rect id="Rectangle" fill="#E63946" x="0" y="0" width="203" height="15" blush:i="0.3.2.0"/><rect id="Rectangle" fill="#F1FAEE" x="0" y="0" width="68" height="15" blush:i="0.3.2.1"/></g><rect id="Rectangle" fill="#E63946" x="56" y="272" width="520" height="38" blush:i="0.3.3"/><rect id="Rectangle" fill="#F1FAEE" x="56" y="272" width="174" height="38" blush:i="0.3.4"/><rect id="Rectangle" fill="#F1FAEE" x="56" y="272" width="257" height="38" blush:i="0.3.5"/><polygon id="Rectangle" fill="#E63946" points="72 310 106 310 18 700 -6.36626862e-12 700" blush:i="0.3.6"/><polygon id="Rectangle" fill="#E63946" transform="translate(330.000000, 505.000000) scale(-1, 1) translate(-330.000000, -505.000000)" points="349 310 383 310 295 700 277 700" blush:i="0.3.7"/><polygon id="Rectangle" fill="#E63946" transform="translate(584.000000, 505.000000) scale(-1, 1) translate(-584.000000, -505.000000)" points="603 310 637 310 549 700 531 700" blush:i="0.3.8"/><rect id="Rectangle" fill="#E63946" x="425" y="83" width="63" height="189" blush:i="0.3.9"/><rect id="Rectangle" fill="#F1FAEE" x="425" y="83" width="18" height="189" blush:i="0.3.10"/></g></g></svg>