<svg viewBox="29.086538461538453 79.27500000000009 793.2692307692307 938.0875" xmlns="http://www.w3.org/2000/svg" xmlns:blush="http://design.blush" overflow="visible" xmlns:xlink="http://www.w3.org/1999/xlink" width="793.2692307692307px" height="938.0875px"><g id="Master/Comps/Graphs" stroke="none" stroke-width="1" fill="none" fill-rule="evenodd" blush:i="0"><g id="Blob" opacity=".151" transform="translate(2.000000, 147.891534) scale(1.5335892514395393 1.532934131736527)" blush:width="799" blush:height="768" blush:component="Blob" blush:i="0.0" blush:value="1"><g id="Blob/1" stroke="none" stroke-width="1" fill="none" fill-rule="evenodd" blush:i="0.0.0"><path d="M421.532241,44.5681909 C463.077658,70.8943232 491.70403,118.895328 499.790051,167.826584 C507.969014,216.850866 495.607626,266.898425 478.5991,314.248253 C461.683517,361.691106 440.120795,406.343203 404.709601,437.22757 C369.391349,468.018912 320.224625,484.949499 272.266158,483.368071 C224.214747,481.693617 177.464536,461.507148 134.153206,433.320512 C90.841877,405.04085 50.96943,368.761021 31.82322,322.620521 C12.6770101,276.573046 14.1640943,220.664899 35.0762169,175.733726 C55.9883394,130.802554 96.3255002,96.8483546 138.893287,70.801298 C181.461075,44.8472665 226.259488,26.8003772 275.890926,20.1955878 C325.522363,13.4977733 379.986825,18.2420586 421.532241,44.5681909 Z" id="blobs-burgers" fill="#A8DADC" blush:i="0.0.0.0"/></g></g><g id="Small Elements" opacity=".825" transform="translate(483.000000, 65.000000) scale(1 1)" blush:width="270" blush:height="270" blush:component="Small Elements" blush:i="0.1" blush:value="Levels"><g id="Small Elements/Levels" stroke="none" stroke-width="1" fill="none" fill-rule="evenodd" blush:i="0.1.0"><g id="Bars" transform="translate(20.000000, 67.000000)" blush:i="0.1.0.0">
<g id="bar" transform="translate(2.000000, 120.000000)" blush:i="0.1.0.0.0">
	<rect id="Range" fill="#000" x="0" y="0" width="228" height="16" rx="8" blush:i="0.1.0.0.0.0"/>
<rect id="Range" fill="#E63946" x="0" y="0" width="228" height="16" rx="8" blush:i="0.1.0.0.0.1"/></g>
<g id="bar" transform="translate(0.000000, 80.000000)" blush:i="0.1.0.0.1">
<rect id="Range" fill="#EDEDEE" x="0" y="0" width="228" height="16" rx="8" blush:i="0.1.0.0.1.0"/>
<rect id="Range" fill="#E94957" x="0" y="0" width="170.776" height="16" rx="8" blush:i="0.1.0.0.1.1"/></g>
<g id="bar" transform="translate(2.000000, 0.000000)" blush:i="0.1.0.0.2">
	<rect id="Range" fill="#EDEDEE" x="0" y="0" width="228" height="16" rx="8" blush:i="0.1.0.0.2.0"/>
	<rect id="Range" fill="#EB5C68" x="0" y="0" width="57.224" height="16" rx="8" blush:i="0.1.0.0.2.1"/></g>
	<g id="bar" transform="translate(0.000000, 40.000000)" blush:i="0.1.0.0.3"><rect id="Range" fill="#EDEDEE" x="0" y="0" width="228" height="16" rx="8" blush:i="0.1.0.0.3.0"/><rect id="Range" fill="#EB5C68" x="0" y="0" width="113.553" height="16" rx="8" blush:i="0.1.0.0.3.1"/></g></g></g></g><g transform="translate(-4.000000, 157.000000) scale(1 1)" blush:has-customizable-colors="true" blush:width="904" blush:height="859" id="Master/Character/Standing" blush:component="Master/Character/Standing" blush:i="0.2" blush:value="Standing"><g id="Master/Character/Standing" stroke="none" stroke-width="1" fill="none" fill-rule="evenodd" blush:has-customizable-colors="true" blush:i="0.2.0"><g id="Legs" transform="translate(50.000000, 263.000000) scale(1 1)" blush:width="693" blush:height="596" blush:component="Legs" blush:i="0.2.0.0" blush:value="Pants Leap"><g id="Legs/Pants Leap" stroke="none" stroke-width="1" fill="none" fill-rule="evenodd" blush:i="0.2.0.0.0"><g id="Right-Leg" transform="translate(176.142400, -0.384108)" blush:i="0.2.0.0.0.0"><path d="M5.23699541,267.701508 L5.9215,201.217508 C5.9735,197.638508 8.9575,194.772508 12.5075,194.812508 C41.7805,195.157508 70.8385,195.082508 99.9845,194.285508 C148.7965,192.566508 196.5965,190.710508 243.8075,180.402508 C253.7605,187.289508 270.7365,224.102508 277.8645,234.722508 C285.0835,248.032508 272.9485,256.339508 260.8025,258.015508 C208.8105,269.466508 154.8625,271.935508 102.1575,273.696508 C71.9025,274.523508 41.6645,274.605508 11.6235,274.248508 C8.0325,274.208508 5.1935,271.276508 5.23699541,267.701508" id="SKIN-DARKER" fill="#dcb284" blush:color="Skin-600" blush:i="0.2.0.0.0.0.0"/><path d="M260.583814,3.50230785 L186.812,46.2381078 C183.044,48.0221078 184.289,53.4341078 186.781,56.5361078 C207.728,91.9301078 228.265,129.194108 241.119,168.003108 L241.108,168.018108 C241.294,168.575108 240.874,169.039108 240.326,168.898108 C240.377,168.870108 240.487,168.836108 240.555,168.830108 C181.182,181.002108 119.012,181.601108 58,182.354108 L58.647,289.625108 C135.37,287.673108 214.402,288.011108 288.7,265.216108 C357.728,242.433108 360.62,192.339108 339.873,131.426108 C328.64,98.8751078 313.325,68.2751078 296.927,38.4731078 C290.151,26.2481078 282.1906,12.3501078 274.8576,0.384107847 L260.583814,3.50230785 Z" id="Fill-3" fill="#051026" blush:i="0.2.0.0.0.0.1"/><path d="M20.0451,274.334308 L20.7691,194.897308 C30.2351,194.982308 39.6591,195.024308 49.0771,195.004308 L49.2371,274.444308 C39.4961,274.466308 29.7591,274.422308 20.0451,274.334308" id="Fill-6" fill="#FFF" blush:i="0.2.0.0.0.0.2"/><path d="M36.4347,274.436908 C36.4527,268.948908 36.5157,249.158908 36.5747,230.705908 C20.6517,231.625908 20.9157,197.806908 36.6767,198.806908 C36.6847,196.390908 36.6887,194.996908 36.6887,194.996908 C27.7757,194.952908 9.7867,194.802908 0.8577,194.704908 L0.8577,310.004908 L11.6557,310.112123 C20.9957,310.206908 23.6577,278.763908 36.4347,274.436908" id="Fill-8" fill="#0A1B45" blush:i="0.2.0.0.0.0.3"/></g><path d="M243,0 C243,55.228475 289.562386,100 347,100 C404.437614,100 451,55.228475 451,0" id="Waist" fill="#0A1B45" blush:i="0.2.0.0.0.1"/><g id="Left-Leg" transform="translate(240.318800, -0.328700)" blush:i="0.2.0.0.0.2"><path d="M59.3884822,562.827393 L8.22533161,517.954522 C5.47518457,515.539791 4.84924069,511.557067 6.86628225,508.928279 C12.6119463,501.42996 18.3305696,493.547814 23.8579045,485.560222 C29.3992604,477.565248 34.7733642,469.417377 39.9691992,461.176712 C64.2438036,422.283728 84.9380091,381.880746 97.3957946,338.202587 C101.271639,324.388007 104.06385,310.689418 105.463961,297.489592 C105.880589,293.471015 108.23514,290.290741 111.468015,288.020472 C119.021405,280.714066 158.59608,286.664427 168.08539,285.772347 C178.356878,285.919973 185.814123,296.247429 184.539201,306.729892 C182.51615,325.768305 178.672354,344.17931 173.693847,361.946035 C158.945608,414.075752 134.314465,462.684601 106.282195,507.46046 C94.5495026,526.061269 82.1768455,544.017799 68.7505996,561.574685 C66.3690083,564.679038 62.1376277,565.247396 59.3884822,562.827393" id="SKIN" fill="#ffdbb4" blush:color="Skin-500" blush:i="0.2.0.0.0.2.0"/><path d="M2.70513186,0.3287 C2.00581245,0.617271324 1.84851568,8.97246435 1.6812,12.6617539 C2.58189936,45.0786348 15.9100457,79.2838154 29.9134661,106.621209 C52.0852978,149.8711 77.3870349,190.67024 88.6833477,237.539911 C110.535576,315.946003 62.8806656,400.923939 22.0596482,464.922529 L110.360246,529.3287 C157.091414,456.837266 197.800219,374.303761 200.60451,284.693939 C201.61141,247.277613 192.588386,209.329431 180.300202,174.344897 C165.858956,132.267196 141.964874,92.017815 122.50015,54.9016449 C115.144272,40.3530161 108.101985,25.2493615 106.189376,10.5564471 C106.524008,6.81133895 104.268753,3.75711691 100.391437,3.84874357 L2.70513186,0.3287 Z" id="Fill-14" fill="#0A1B45" blush:i="0.2.0.0.0.2.1"/><path d="M73.2882502,555.3287 L10.6812,503.361561 C16.5085195,495.575628 22.2394864,487.50974 27.7907961,479.3287 L92.6812,528.092726 C86.4283236,537.305903 79.9917753,546.372236 73.2882502,555.3287" id="Fill-16" fill="#FFF" blush:i="0.2.0.0.0.2.2"/><path d="M84.2622175,539.210991 C79.8444296,535.765712 63.9119172,523.33806 49.0572809,511.750926 C40.592695,525.558375 13.7139751,503.782862 23.3777608,491.720699 C21.4335731,490.203976 20.3115793,489.3287 20.3115793,489.3287 C13.9907135,498.256302 7.5054089,507.024859 0.6812,515.473218 L87.7816083,595.3287 C88.9888295,593.842522 91.415304,590.854366 92.5834208,589.356602 L96.7495372,583.998566 C102.551017,573.558454 79.1565943,551.094097 84.2622175,539.210991" id="Fill-18" fill="#0A1B45" blush:i="0.2.0.0.0.2.3"/><path d="M54.6860646,3.3518613 L52.6812,3.3287 C52.9678956,53.2613046 84.6347324,94.8411022 105.122444,136.956768 C127.937804,182.148676 147.247657,231.149564 146.662237,282.965604 C143.589782,360.933909 106.345411,432.709726 65.4000612,496.129576 L67.0470575,497.3287 C108.213945,433.586697 145.595649,361.421349 148.667101,283.016138 C149.279587,230.862154 129.851447,181.422253 106.889732,135.958727 C86.5463709,94.0462485 55.0499476,52.9012517 54.6860646,3.3518613" id="Fill-20" fill="#FFF" blush:i="0.2.0.0.0.2.4"/></g></g></g><g id="Body" transform="translate(17.000000, -31.000000) scale(1 1)" blush:width="863" blush:height="528" blush:component="Body" blush:i="0.2.0.1" blush:value="Sweats Wave"><g id="Body/Sweats Wave" stroke="none" stroke-width="1" fill="none" fill-rule="evenodd" blush:i="0.2.0.1.0"><g id="Right-Arm" transform="translate(618.442533, 229.483602) rotate(-13.000000) translate(-618.442533, -229.483602) translate(429.442533, 114.983602)" blush:i="0.2.0.1.0.0"><path d="M342.541289,187.743347 C326.910289,191.836347 303.699289,189.846347 289.357289,194.687347 C238.559289,212.680347 180.701289,224.619347 128.506289,203.387347 C96.3992891,190.117347 70.6652891,164.611347 51.9822891,136.551347 C37.9812891,115.590347 27.2752891,93.1963468 18.5502891,69.9293468 C11.1882891,50.7343468 18.3742891,29.4563468 38.5122891,24.1903468 C56.7412891,19.3603468 73.9952891,29.5873468 80.3732891,46.8233468 C87.4822891,65.8393468 96.2372891,84.0083468 106.810289,99.8083468 C145.030289,162.627347 207.091289,154.460347 267.812289,132.285347 C291.775289,123.020347 320.547289,113.292347 344.412289,113.403347 C362.491289,114.243347 376.218289,115.968347 377.718289,123.811347 C378.264289,134.125347 368.695289,130.839347 356.856289,134.508347 C362.970289,138.209347 370.224289,144.108347 364.643289,150.640347 C362.449289,153.148347 358.749289,154.590347 355.043289,153.163347 C348.560289,150.629347 342.448289,143.702347 328.740289,144.316347 C319.320289,148.784347 316.804289,164.880347 326.022289,168.956347 C329.739289,170.857347 334.618289,171.042347 338.855289,171.045347 C348.378289,170.718347 351.846289,185.047347 342.541289,187.743347" id="SKIN-DARKER" fill="#dcb284" blush:color="Skin-600" blush:i="0.2.0.1.0.0.0"/><path d="M342.541289,187.743347 C326.910289,191.836347 303.699289,189.846347 289.357289,194.687347 C238.559289,212.680347 180.701289,224.619347 128.506289,203.387347 C96.3992891,190.117347 70.6652891,164.611347 51.9822891,136.551347 C37.9812891,115.590347 27.2752891,93.1963468 18.5502891,69.9293468 C11.1882891,50.7343468 18.3742891,29.4563468 38.5122891,24.1903468 C56.7412891,19.3603468 73.9952891,29.5873468 80.3732891,46.8233468 C87.4822891,65.8393468 96.2372891,84.0083468 106.810289,99.8083468 C145.030289,162.627347 207.091289,154.460347 267.812289,132.285347 C291.775289,123.020347 320.547289,113.292347 344.412289,113.403347 C362.491289,114.243347 376.218289,115.968347 377.718289,123.811347 C378.264289,134.125347 368.695289,130.839347 356.856289,134.508347 C362.970289,138.209347 370.224289,144.108347 364.643289,150.640347 C362.449289,153.148347 358.749289,154.590347 355.043289,153.163347 C348.560289,150.629347 342.448289,143.702347 328.740289,144.316347 C319.320289,148.784347 316.804289,164.880347 326.022289,168.956347 C329.739289,170.857347 334.618289,171.042347 338.855289,171.045347 C348.378289,170.718347 351.846289,185.047347 342.541289,187.743347" id="SKIN-DARKER" fill="#dcb284" blush:color="Skin-600" blush:i="0.2.0.1.0.0.1"/><path d="M271.726389,124.421647 C263.116389,127.732647 254.476389,130.636647 245.868389,133.210647 C209.721389,128.488647 170.801389,142.749647 140.115389,113.753647 C124.248389,100.025647 111.598389,81.1806468 101.259389,63.0776468 C72.5927977,14.2024092 60.1310047,0 32.9129471,0 C5.69488945,0 -5.40261093,41.7106468 4.30438907,65.8116468 C9.72538907,88.1616468 18.9403891,112.543647 30.8733891,133.665647 C49.0233891,166.223647 75.9573891,196.137647 110.646389,213.068647 C149.096389,232.187647 194.961389,232.042647 235.338389,219.462647 C246.633389,215.779647 258.116389,211.856647 267.152389,205.127647 C277.835389,201.938647 288.295389,198.399647 298.498389,194.481647 L271.726389,124.421647 Z" id="Fill-4" fill="#E63946" blush:i="0.2.0.1.0.0.2"/><path d="M246.578389,134.567647 L267.932389,206.463647 C278.530389,203.286647 288.911389,199.770647 299.034389,195.883647 L272.262389,125.825647 C263.714389,129.109647 255.133389,131.998647 246.578389,134.567647" id="Fill-7" fill="#E63946" blush:i="0.2.0.1.0.0.3"/></g><g id="Body" transform="translate(238.000000, 149.000000)" blush:i="0.2.0.1.0.1"><path d="M278.106708,192.298647 C205.538716,197.378937 1.44114734,174.139406 3.75109927,161.20524 C8.33256874,135.552114 16.2642525,95.4663653 27.5461506,40.9479927 C27.5461506,18.3333745 47.7038086,-0.000770909091 72.5687342,-0.000770909091 L211.895593,-0.000770909091 C236.760519,-0.000770909091 256.917117,18.3333745 256.917117,40.9479927 C266.870755,93.2351517 274.102974,132.007446 278.613775,157.264876 C280.224412,166.283349 280.055389,177.961273 278.106708,192.298647 Z" id="Sweat-Body" fill="#E63946" blush:i="0.2.0.1.0.1.0"/><path d="M0.000317843866,195.189749 C100.650875,230.844295 209.77727,197.117022 284.463162,195.189749 L279.673255,156.30124 C206.510894,158.917513 101.819481,190.863022 3.67459294,157.11744 L0.000317843866,195.189749 Z" id="Bottom" fill="#E63946" blush:i="0.2.0.1.0.1.1"/></g><g id="Left-Arm" transform="translate(30.000000, -40.000000)" blush:i="0.2.0.1.0.2"><path d="M73.8739006,77.9497499 C82.8199006,118.68275 94.9729006,164.22375 128.202901,191.31475 C162.534901,215.77775 210.900901,209.88475 251.562901,200.42875 C269.452901,195.94775 287.726901,204.33575 294.017901,222.20175 C305.805901,261.08775 259.064901,267.84975 230.792901,271.61175 C191.285901,277.05375 149.674901,275.93775 112.423901,258.43575 C99.1889006,252.23375 86.6039006,243.58675 76.0159006,233.39975 C46.7439006,205.26475 30.4399006,168.35075 18.9709006,130.73775 C10.8099006,103.30275 5.65190062,75.5597499 2.28490062,47.2947499 C1.38190062,39.7547499 0.652900619,32.2027499 0.0569006193,24.6107499 C-0.884099381,15.9417499 10.0809006,10.9697499 15.5829006,17.5417499 L15.2389006,12.0117499 C14.4439006,2.94874992 26.6039006,-1.14625008 31.4759006,6.13574992 C34.8229006,-4.40425008 50.6329006,-0.316250077 49.2069006,10.4557499 C53.5689006,4.07174992 65.2759006,7.00474992 65.5139006,14.8047499 C65.8919006,20.3947499 66.3749006,26.0187499 66.9579006,31.6307499 C81.6679006,30.9517499 76.7269006,53.1797499 80.2069006,62.7027499 C81.9479006,72.6067499 72.8069006,72.4617499 73.8739006,77.9497499" id="SKIN" fill="#ffdbb4" blush:color="Skin-500" blush:i="0.2.0.1.0.2.0"/><path d="M5.04910062,100.56075 C7.42010062,111.31575 10.0801006,122.08975 13.3351006,132.85275 C11.6801006,174.73975 38.2201006,221.86175 69.9461006,250.71075 C102.507101,280.65375 152.021101,292.35275 194.185101,289.76875 C224.119101,288.36075 252.991101,281.54375 278.296101,272.02075 C303.639101,266.47575 324.112871,257.381701 313.020871,232.848701 C303.844871,211.485701 331.71943,189.000771 271.725541,189 C211.731651,188.999229 178.279101,197.51075 144.005101,182.13675 C118.138101,171.32575 98.8261006,129.19775 85.1831006,111.33675 C82.5431006,102.63475 80.3301006,93.6597499 78.3251006,84.5757499 L5.04910062,100.56075 Z" id="Fill-12" fill="#E63946" blush:i="0.2.0.1.0.2.1"/><path d="M14.6581006,132.02395 L86.5281006,110.58295 C83.9341006,102.03695 81.7681006,93.1889499 79.7931006,84.2559499 L6.51510062,100.24095 C8.85510062,110.83295 11.4541006,121.42595 14.6581006,132.02395" id="Fill-14" fill="#E63946" blush:i="0.2.0.1.0.2.2"/></g></g></g><g id="Head" transform="translate(338.000000, -61.000000) scale(1 1)" blush:width="127" blush:height="211" blush:component="Head" blush:i="0.2.0.2" blush:value="Braid"><g id="Head/Braid" stroke="none" stroke-width="1" fill="none" fill-rule="evenodd" blush:i="0.2.0.2.0"><g id="Group-24" transform="translate(-14.000000, 61.000000)" blush:i="0.2.0.2.0.0"><path d="M36.7634,119.9999 L12.0004,119.9999 L12.0004,105.5959 C12.0004,96.9819 18.9824,89.9999 27.5964,89.9999 L44.9824,89.9999 C47.2014,89.9999 49.0004,91.7989 49.0004,94.0179 L49.0004,107.7639 C49.0004,114.5209 43.5214,119.9999 36.7634,119.9999" id="Fill-1" fill="#000" blush:i="0.2.0.2.0.0.0"/><path d="M16.9163,145.9999 L16.9163,145.9999 C26.3513,145.9999 34.0003,138.3519 34.0003,128.9169 L34.0003,119.9999 L4.6793,119.9999 C2.0953,119.9999 0.0003,122.0949 0.0003,124.6799 L0.0003,129.0829 C0.0003,138.4259 7.5733,145.9999 16.9163,145.9999" id="Fill-3" fill="#000" blush:i="0.2.0.2.0.0.1"/><path d="M45,99.9999 L45,99.9999 C29.536,99.9999 17,87.4639 17,71.9999 L17,47.9999 L45,47.9999 L45,99.9999 Z" id="Fill-5" fill="#000" blush:i="0.2.0.2.0.0.2"/><path d="M67.8008,104.9999 L81.9998,104.9999 L81.9998,-0.0001 L67.8008,-0.0001 C39.7448,-0.0001 16.9998,22.7439 16.9998,50.8009 L16.9998,54.1989 C16.9998,82.2559 39.7448,104.9999 67.8008,104.9999" id="Fill-7" fill="#000" blush:i="0.2.0.2.0.0.3"/><path d="M83.1992,92.9999 L74.0002,92.9999 L74.0002,-0.0001 L83.1992,-0.0001 C111.2552,-0.0001 134.0002,15.8029 134.0002,50.5929 L134.0002,67.2069 C134.0002,92.9999 111.2552,92.9999 83.1992,92.9999" id="Fill-10" fill="#000" blush:i="0.2.0.2.0.0.4"/><path d="M49,72.9999 L94,72.9999 L94,124.6329 C94,138.5379 83.927,149.8099 71.5,149.8099 C59.073,149.8099 49,138.5379 49,124.6329 L49,72.9999 Z" id="SKIN" fill="#ffdbb4" blush:color="Skin-500" blush:i="0.2.0.2.0.0.5"/><path d="M96.0525,104.9999 L91.0655,104.9999 C67.8335,104.9999 49.0005,86.1669 49.0005,62.9349 L49.0005,43.2029 C49.0005,25.4179 63.4175,10.9999 81.2035,10.9999 L86.7965,10.9999 C104.5825,10.9999 119.0005,25.4179 119.0005,43.2029 L119.0005,82.0519 C119.0005,94.7259 108.7265,104.9999 96.0525,104.9999" id="SKIN" fill="#ffdbb4" blush:color="Skin-500" blush:i="0.2.0.2.0.0.6"/><path d="M70.7507501,107.331676 C61.4557924,104.043569 56.8185822,95.7386742 54.9822222,84.5680961 C62.2532122,96.6701724 75.4406226,104.813226 90.5439426,104.996733 L91.0655,104.9999 L94,104.9999 C86.0632106,109.229739 78.3134606,110.006998 70.7507501,107.331676 Z" id="SHADOW" fill="#000" opacity=".12" blush:i="0.2.0.2.0.0.7"/><path d="M61,69.4999 C61,76.4029 55.404,81.9999 48.5,81.9999 C41.596,81.9999 36,76.4029 36,69.4999 C36,62.5969 41.596,56.9999 48.5,56.9999 C55.404,56.9999 61,62.5969 61,69.4999" id="SKIN" fill="#ffdbb4" blush:color="Skin-500" blush:i="0.2.0.2.0.0.8"/><path d="M46.0669,64.1684 C46.9717309,64.1684 48.2238875,64.3770928 49.5087204,65.0195092 C51.6552998,66.0927989 53.0129325,68.055228 53.10401,70.9020045 L53.1089,71.2104 L50.1089,71.2104 C50.1089,69.3750144 49.4075866,68.3230443 48.1670796,67.7027908 C47.7064142,67.4724581 47.1975823,67.3198085 46.686239,67.2345846 C46.4346302,67.1926498 46.2384731,67.1746448 46.1249097,67.169808 L46.0669,67.1684 L46.0669,64.1684 Z" id="Stroke-19" fill="#000" fill-rule="nonzero" blush:i="0.2.0.2.0.0.9"/><path d="M48,56.9999 L46.464,56.9999 C40.61,51.3079 38.361,39.7079 37.683,28.4489 C36.754,13.0199 63.542,-0.0001 78.999,-0.0001 L78.999,-0.0001 C90.89,-0.0001 102.025,5.8309 108.797,15.6049 L116,25.9999 L74.697,25.9999 C74.697,42.9999 60,56.9999 48,56.9999" id="Fill-21" fill="#000" blush:i="0.2.0.2.0.0.10"/></g></g></g><g id="Expression" transform="translate(385.000000, 34.000000) scale(1 1)" fill="#000" blush:width="61" blush:height="61" blush:component="Expression" blush:i="0.2.0.3" blush:value="Happy"><g id="Expression/Happy" stroke="none" stroke-width="1" fill="none" fill-rule="evenodd" blush:i="0.2.0.3.0"><path d="M20.5607,22 C20.5607,20.343 19.2177,19 17.5607,19 C15.9037,19 14.5607,20.343 14.5607,22 C14.5607,23.657 15.9037,25 17.5607,25 C19.2177,25 20.5607,23.657 20.5607,22" id="Fill-1" fill="#000" blush:i="0.2.0.3.0.0"/><path d="M46.5607,22 C46.5607,20.343 45.2177,19 43.5607,19 C41.9037,19 40.5607,20.343 40.5607,22 C40.5607,23.657 41.9037,25 43.5607,25 C45.2177,25 46.5607,23.657 46.5607,22" id="Fill-3" fill="#000" blush:i="0.2.0.3.0.1"/><polygon id="Stroke-5" fill="#000" points="33.1977829 19.396766 36.1476171 18.850434 40.4350211 41.9996 30.5607 41.9996 30.5607 38.9996 36.828 38.999" blush:i="0.2.0.3.0.2"/><path d="M21.9219,41.586 C21.9219,45.2602625 25.6639817,48.6581933 29.6815435,48.7900329 L29.9229,48.794 L29.9229,51.794 C24.3252295,51.794 19.0961019,47.2280163 18.9261594,41.8552911 L18.9219,41.586 L21.9219,41.586 Z" id="Stroke-7" fill="#000" blush:i="0.2.0.3.0.3"/><path d="M23.0607,9 L23.0607,12 C19.8342736,12 16.8913939,12.8655529 14.2891644,14.3112359 C13.508469,14.7449556 12.8086718,15.2043948 12.1956619,15.6654963 L11.8964164,15.8960741 C11.548672,16.1706093 11.3051282,16.3844813 11.1717567,16.5115787 L11.1213602,16.5606602 L9.00003983,14.4393398 C9.71719288,13.7221868 11.0118484,12.7000903 12.8322356,11.6887641 C15.7235813,10.0824609 18.9894549,9.08904431 22.5704367,9.00569674 L23.0607,9 Z" id="Stroke-9" fill="#000" blush:i="0.2.0.3.0.4"/><path d="M37.0607,9 C40.8342736,9 44.2663939,10.0094471 47.2891644,11.6887641 C48.9957774,12.6368824 50.2403215,13.5944668 50.980139,14.3013772 L51.1213602,14.4393398 L49.0000398,16.5606602 L48.8084832,16.3819961 C48.6965748,16.2822525 48.549249,16.1566104 48.3676199,16.0099419 L48.2249836,15.8960741 C47.5437467,15.3582556 46.7430469,14.8172422 45.8322356,14.3112359 C43.3601176,12.937837 40.5805627,12.0880056 37.5425302,12.006456 L37.0607,12 L37.0607,9 Z" id="Stroke-11" fill="#000" blush:i="0.2.0.3.0.5"/></g></g><g id="Accessories" transform="translate(372.000000, 56.000000) scale(1 1)" fill="#000" blush:width="76" blush:height="48" blush:component="Accessories" blush:i="0.2.0.4" blush:value="None"><g id="Accessories/None" stroke="none" stroke-width="1" fill="none" fill-rule="evenodd" fill-opacity="0" blush:i="0.2.0.4.0"/></g><g id="Glasses" transform="translate(364.000000, 42.000000) scale(1 1)" fill="#000" blush:width="95" blush:height="32" blush:component="Glasses" blush:i="0.2.0.5" blush:value="Round Big"><g id="Glasses/Round Big" stroke="none" stroke-width="1" fill="none" fill-rule="evenodd" blush:i="0.2.0.5.0"><path d="M59,16 C59,25.3888407 51.3888407,33 42,33 C32.719077,33 25.175204,25.5628044 25.0030079,16.3230397 L25,16 L0,16 L0,14 L25.1163521,14.0004624 C26.106,5.55389893 33.2876275,-1 42,-1 C50.7123725,-1 57.894,5.55389893 58.8836479,14.0004624 L61.1163521,14.0004624 C62.106,5.55389893 69.2876275,-1 78,-1 C87.3888407,-1 95,6.61115925 95,16 C95,25.3888407 87.3888407,33 78,33 C68.719077,33 61.175204,25.5628044 61.0030079,16.3230397 L61,16 L59,16 Z M42,1 C33.7157288,1 27,7.71572875 27,16 C27,24.2842712 33.7157288,31 42,31 C50.2842712,31 57,24.2842712 57,16 C57,7.71572875 50.2842712,1 42,1 Z M78,1 C69.7157288,1 63,7.71572875 63,16 C63,24.2842712 69.7157288,31 78,31 C86.2842712,31 93,24.2842712 93,16 C93,7.71572875 86.2842712,1 78,1 Z" id="Shape" fill="#000" blush:i="0.2.0.5.0.0"/></g></g></g></g><g id="Small Elements" transform="translate(75.000000, 687.000000) scale(0.8148148148148148 0.8148148148148148)" blush:width="220" blush:height="220" blush:component="Small Elements" blush:i="0.3" blush:value="Grid"><g id="Small Elements/Grid" stroke="none" stroke-width="1" fill="none" fill-rule="evenodd" blush:i="0.3.0"><path d="M61.638852,-1.5 L102.361148,-1.5 C111.276335,-1.5 114.509198,-0.571743889 117.768457,1.17132704 C121.027716,2.91439796 123.585602,5.47228371 125.328673,8.73154296 C127.071744,11.9908022 128,15.2236646 128,24.138852 L128,98.861148 C128,107.776335 127.071744,111.009198 125.328673,114.268457 C123.585602,117.527716 121.027716,120.085602 117.768457,121.828673 C114.509198,123.571744 111.276335,124.5 102.361148,124.5 L61.638852,124.5 C52.7236646,124.5 49.4908022,123.571744 46.231543,121.828673 C42.9722837,120.085602 40.414398,117.527716 38.671327,114.268457 C36.9282561,111.009198 36,107.776335 36,98.861148 L36,24.138852 C36,15.2236646 36.9282561,11.9908022 38.671327,8.73154296 C40.414398,5.47228371 42.9722837,2.91439796 46.231543,1.17132704 C49.4908022,-0.571743889 52.7236646,-1.5 61.638852,-1.5 Z" id="Rectangle-2-Copy-7" fill="#EEEEEF" opacity=".906" blush:i="0.3.0.0"/><path d="M61.638852,144.5 L102.361148,144.5 C111.276335,144.5 114.509198,145.428256 117.768457,147.171327 C121.027716,148.914398 123.585602,151.472284 125.328673,154.731543 C127.071744,157.990802 128,161.223665 128,170.138852 L128,244.861148 C128,253.776335 127.071744,257.009198 125.328673,260.268457 C123.585602,263.527716 121.027716,266.085602 117.768457,267.828673 C114.509198,269.571744 111.276335,270.5 102.361148,270.5 L61.638852,270.5 C52.7236646,270.5 49.4908022,269.571744 46.231543,267.828673 C42.9722837,266.085602 40.414398,263.527716 38.671327,260.268457 C36.9282561,257.009198 36,253.776335 36,244.861148 L36,170.138852 C36,161.223665 36.9282561,157.990802 38.671327,154.731543 C40.414398,151.472284 42.9722837,148.914398 46.231543,147.171327 C49.4908022,145.428256 52.7236646,144.5 61.638852,144.5 Z" id="Rectangle-2-Copy-10" fill="#EEEEEF" opacity=".866" blush:i="0.3.0.1"/><path d="M167.638852,105.5 L208.361148,105.5 C217.276335,105.5 220.509198,106.428256 223.768457,108.171327 C227.027716,109.914398 229.585602,112.472284 231.328673,115.731543 C233.071744,118.990802 234,122.223665 234,131.138852 L234,177.861148 C234,186.776335 233.071744,190.009198 231.328673,193.268457 C229.585602,196.527716 227.027716,199.085602 223.768457,200.828673 C220.509198,202.571744 217.276335,203.5 208.361148,203.5 L167.638852,203.5 C158.723665,203.5 155.490802,202.571744 152.231543,200.828673 C148.972284,199.085602 146.414398,196.527716 144.671327,193.268457 C142.928256,190.009198 142,186.776335 142,177.861148 L142,131.138852 C142,122.223665 142.928256,118.990802 144.671327,115.731543 C146.414398,112.472284 148.972284,109.914398 152.231543,108.171327 C155.490802,106.428256 158.723665,105.5 167.638852,105.5 Z" id="Rectangle-2-Copy-11" fill="#EDEDEE" blush:i="0.3.0.2"/></g></g></g></svg>